<?xml version="1.0" encoding="UTF-8" standalone="no"?>
<!-- Created with Inkscape (http://www.inkscape.org/) -->

<svg
   width="90mm"
   height="90mm"
   viewBox="0 0 90 90"
   version="1.1"
   id="svg1"
   inkscape:export-filename="bitmapasdasdasdasd.svg"
   inkscape:export-xdpi="96"
   inkscape:export-ydpi="96"
   xmlns:inkscape="http://www.inkscape.org/namespaces/inkscape"
   xmlns:sodipodi="http://sodipodi.sourceforge.net/DTD/sodipodi-0.dtd"
   xmlns="http://www.w3.org/2000/svg"
   xmlns:svg="http://www.w3.org/2000/svg">
  <sodipodi:namedview
     id="namedview1"
     pagecolor="#ffffff"
     bordercolor="#000000"
     borderopacity="0.25"
     inkscape:showpageshadow="2"
     inkscape:pageopacity="0.0"
     inkscape:pagecheckerboard="0"
     inkscape:deskcolor="#d1d1d1"
     inkscape:document-units="mm" />
  <defs
     id="defs1" />
  <g
     inkscape:label="Layer 1"
     inkscape:groupmode="layer"
     id="layer1"
     transform="translate(-91.804598,-169.98709)">
    <circle
       style="fill:#1e1e1e;fill-opacity:1;stroke-width:0.245181"
       id="path3"
       clip-path="none"
       r="45"
       cy="214.98709"
       cx="136.8046"
       inkscape:export-filename="path3.svg"
       inkscape:export-xdpi="96"
       inkscape:export-ydpi="96" />
    <path
       style="font-size:192px;font-family:Aleo;-inkscape-font-specification:Aleo;text-align:center;text-anchor:middle;white-space:pre;fill:#565f74"
       d="m 227.76536,456.14686 q -15.36,0 -28.032,-5.184 -12.48,-5.376 -21.504,-15.552 -8.64,-9.984 -12.864,-22.656 -4.032,-12.864 -4.032,-26.496 0,-15.936 4.992,-28.8 5.184,-13.056 14.208,-22.272 9.216,-9.408 21.696,-14.592 12.672,-5.184 27.456,-5.184 7.872,0 14.976,1.344 7.296,1.344 14.4,3.648 7.104,2.304 14.4,5.184 v 14.016 l -13.44,-2.496 q -5.952,-2.112 -13.248,-3.84 -7.296,-1.728 -15.744,-1.728 -15.36,0 -26.88,6.912 -11.328,6.72 -17.664,19.008 -6.144,12.288 -6.144,28.8 0,15.168 5.568,27.456 5.568,12.096 16.704,19.2 11.328,7.104 27.84,7.104 9.216,0 17.088,-2.688 8.064,-2.88 15.744,-9.792 0.96,-0.768 1.728,-0.96 0.768,-0.384 1.536,-0.384 1.536,0 2.688,1.152 l 7.296,8.064 q -7.68,8.832 -19.776,14.784 -11.904,5.952 -28.992,5.952 z m 29.952,-121.344 15.744,4.8 v 17.472 h -8.832 q -1.536,0 -2.688,-0.576 -0.96,-0.768 -1.344,-2.496 z m 91.58412,119.808 -56.064,-137.664 h 14.976 q 2.496,0 4.032,1.344 1.536,1.152 2.304,3.072 l 38.784,97.152 q 1.344,3.264 2.496,7.104 1.152,3.84 2.112,7.872 0.96,-4.032 1.92,-7.872 0.96,-3.84 2.304,-7.104 l 38.784,-97.152 q 0.576,-1.536 2.112,-2.88 1.728,-1.536 4.224,-1.536 h 14.976 l -56.064,137.664 z m -44.352,-132.864 v -4.8 h 14.4 v 4.8 z m 92.352,0 v -4.8 h 14.4 v 4.8 z m -91.2,-4.8 -2.112,14.976 -14.4,-3.072 q -1.536,-0.384 -2.304,-1.344 -0.768,-0.96 -0.768,-2.688 v -7.872 z m 26.304,0 v 7.872 q 0,1.728 -0.768,2.688 -0.768,0.96 -2.304,1.344 l -14.4,3.072 -2.112,-14.976 z m 70.272,0 -2.112,14.976 -14.4,-3.072 q -1.536,-0.384 -2.304,-1.344 -0.768,-0.96 -0.768,-2.688 v -7.872 z m 26.304,0 v 7.872 q 0,1.728 -0.768,2.688 -0.768,0.96 -2.304,1.344 l -14.4,3.072 -2.112,-14.976 z"
       id="text1"
       transform="matrix(0.26458333,0,0,0.26458333,58.710862,112.91643)"
       aria-label="CV" />
  </g>
</svg>
